<svg xmlns="http://www.w3.org/2000/svg" xmlns:xlink="http://www.w3.org/1999/xlink" version="1.1" x="0px" y="0px" viewBox="0 0 100 125" style="enable-background:new 0 0 100 100;" xml:space="preserve"><g><g><path d="M94.9,45.9H5.1C2.8,45.9,1,47.7,1,50s1.8,4.1,4.1,4.1h89.8c2.3,0,4.1-1.8,4.1-4.1S97.2,45.9,94.9,45.9z M5.1,25.5h89.8    c2.3,0,4.1-1.8,4.1-4.1s-1.8-4.1-4.1-4.1H5.1c-2.3,0-4.1,1.8-4.1,4.1S2.8,25.5,5.1,25.5z M94.9,74.5H5.1c-2.3,0-4.1,1.8-4.1,4.1    c0,2.3,1.8,4.1,4.1,4.1h89.8c2.3,0,4.1-1.8,4.1-4.1S97.2,74.5,94.9,74.5z"/></g></g><text x="0" y="115" fill="#000000" font-size="5px" font-weight="bold" font-family="'Helvetica Neue', Helvetica, Arial-Unicode, Arial, Sans-serif">Created by Graphik Designz</text><text x="0" y="120" fill="#000000" font-size="5px" font-weight="bold" font-family="'Helvetica Neue', Helvetica, Arial-Unicode, Arial, Sans-serif">from the Noun Project</text></svg>