<svg xmlns="http://www.w3.org/2000/svg" xmlns:xlink="http://www.w3.org/1999/xlink" xml:space="preserve" style="shape-rendering:geometricPrecision;text-rendering:geometricPrecision;image-rendering:optimizeQuality;" viewBox="0 0 6.82666 8.533325000000001" x="0px" y="0px" fill-rule="evenodd" clip-rule="evenodd"><defs><style type="text/css">
   
    .fil1 {fill:none}
    .fil0 {fill:black;fill-rule:nonzero}
   
  </style></defs><g><path class="fil0" d="M3.4135 1.05129c-2.02356,2.2072 -1.95481,3.64009 -1.23122,4.31216 0.323161,0.30015 0.776677,0.450213 1.23096,0.450189 0.454287,-1.9685e-005 0.907819,-0.150138 1.23102,-0.450323 0.723677,-0.67215 0.792594,-2.10505 -1.23076,-4.31202zm-1.33997 4.42903c-0.787343,-0.731283 -0.883445,-2.26828 1.27746,-4.59693 0.00243701,-0.00304331 0.00512598,-0.00594882 0.00807087,-0.0086811 0.0323701,-0.0300669 0.0829961,-0.0281969 0.113063,0.00417323l-0.000133858 0.000122047c2.16491,2.33089 2.06895,3.86935 1.28102,4.60119 -0.353705,0.328516 -0.847134,0.492803 -1.33977,0.492827 -0.49263,2.75591e-005 -0.986039,-0.164205 -1.33971,-0.492693z"/><path class="fil0" d="M4.46181 3.80972c-0.0108701,-0.0426299 -0.054248,-0.0683701 -0.096878,-0.0575 -0.0426299,0.0108701 -0.0683701,0.054248 -0.0575,0.096878 0.000523622,0.00204724 0.187575,0.710543 -0.219587,1.09143 -0.0320984,0.0300276 -0.0337795,0.0804016 -0.00375197,0.1125 0.0300276,0.0320984 0.0804016,0.0337795 0.1125,0.00375197 0.476894,-0.446126 0.265807,-1.24475 0.265217,-1.24706z"/></g><rect class="fil1" width="6.82666" height="6.82666"/><text x="0" y="21.82666" fill="#000000" font-size="5px" font-weight="bold" font-family="'Helvetica Neue', Helvetica, Arial-Unicode, Arial, Sans-serif">Created by IYIKON</text><text x="0" y="26.82666" fill="#000000" font-size="5px" font-weight="bold" font-family="'Helvetica Neue', Helvetica, Arial-Unicode, Arial, Sans-serif">from the Noun Project</text></svg>