<svg xmlns="http://www.w3.org/2000/svg" xmlns:xlink="http://www.w3.org/1999/xlink" xml:space="preserve" style="shape-rendering:geometricPrecision;text-rendering:geometricPrecision;image-rendering:optimizeQuality;" viewBox="0 0 6.82666 8.533325000000001" x="0px" y="0px" fill-rule="evenodd" clip-rule="evenodd"><defs><style type="text/css">
   
    .fil1 {fill:none}
    .fil0 {fill:black;fill-rule:nonzero}
   
  </style></defs><g><path class="fil0" d="M3.41333 2.2303c0.326677,0 0.622437,0.132421 0.836524,0.346508 0.214087,0.214087 0.346508,0.509846 0.346508,0.836524 0,0.326677 -0.132421,0.622437 -0.346508,0.836524 -0.214087,0.214087 -0.509846,0.346508 -0.836524,0.346508 -0.326677,0 -0.622437,-0.132421 -0.836524,-0.346508 -0.214087,-0.214087 -0.346508,-0.509846 -0.346508,-0.836524 0,-0.326677 0.132421,-0.622437 0.346508,-0.836524 0.214087,-0.214087 0.509846,-0.346508 0.836524,-0.346508zm0.723398 0.459634c-0.185126,-0.185126 -0.44089,-0.299634 -0.723398,-0.299634 -0.282508,0 -0.538272,0.114508 -0.723398,0.299634 -0.185126,0.185126 -0.299634,0.44089 -0.299634,0.723398 0,0.282508 0.114508,0.538272 0.299634,0.723398 0.185126,0.185126 0.44089,0.299634 0.723398,0.299634 0.282508,0 0.538272,-0.114508 0.723398,-0.299634 0.185126,-0.185126 0.299634,-0.44089 0.299634,-0.723398 0,-0.282508 -0.114508,-0.538272 -0.299634,-0.723398z"/><path class="fil0" d="M3.45898 0.934157c0,-0.0441811 -0.0358189,-0.08 -0.08,-0.08 -0.0441811,0 -0.08,0.0358189 -0.08,0.08l0 0.833335c0,0.0441811 0.0358189,0.08 0.08,0.08 0.0441811,0 0.08,-0.0358189 0.08,-0.08l0 -0.833335z"/><path class="fil0" d="M4.69224 1.28913c0.0220906,-0.0381417 0.00907874,-0.0869724 -0.029063,-0.109063 -0.0381417,-0.0220906 -0.0869724,-0.00907874 -0.109063,0.029063l-0.416669 0.721689c-0.0220906,0.0381417 -0.00907874,0.0869724 0.029063,0.109063 0.0381417,0.0220906 0.0869724,0.00907874 0.109063,-0.029063l0.416669 -0.721689z"/><path class="fil0" d="M5.58287 2.21306c0.0381417,-0.0219173 0.0512913,-0.0706102 0.029374,-0.108752 -0.0219173,-0.0381417 -0.0706102,-0.0512913 -0.108752,-0.029374l-0.721689 0.416665c-0.0381417,0.0219173 -0.0512913,0.0706102 -0.029374,0.108752 0.0219173,0.0381417 0.0706102,0.0512913 0.108752,0.029374l0.721689 -0.416665z"/><path class="fil0" d="M5.8925 3.45898c0.0441811,0 0.08,-0.0358189 0.08,-0.08 0,-0.0441811 -0.0358189,-0.08 -0.08,-0.08l-0.833335 0c-0.0441811,0 -0.08,0.0358189 -0.08,0.08 0,0.0441811 0.0358189,0.08 0.08,0.08l0.833335 0z"/><path class="fil0" d="M5.53753 4.69224c0.0381417,0.0220906 0.0869724,0.00907874 0.109063,-0.029063 0.0220906,-0.0381417 0.00907874,-0.0869724 -0.029063,-0.109063l-0.721689 -0.416669c-0.0381417,-0.0220906 -0.0869724,-0.00907874 -0.109063,0.029063 -0.0220906,0.0381417 -0.00907874,0.0869724 0.029063,0.109063l0.721689 0.416669z"/><path class="fil0" d="M4.6136 5.58287c0.0219173,0.0381417 0.0706102,0.0512913 0.108752,0.029374 0.0381417,-0.0219173 0.0512913,-0.0706102 0.029374,-0.108752l-0.416665 -0.721689c-0.0219173,-0.0381417 -0.0706102,-0.0512913 -0.108752,-0.029374 -0.0381417,0.0219173 -0.0512913,0.0706102 -0.029374,0.108752l0.416665 0.721689z"/><path class="fil0" d="M3.36768 5.8925c0,0.0441811 0.0358189,0.08 0.08,0.08 0.0441811,0 0.08,-0.0358189 0.08,-0.08l0 -0.833335c0,-0.0441811 -0.0358189,-0.08 -0.08,-0.08 -0.0441811,0 -0.08,0.0358189 -0.08,0.08l0 0.833335z"/><path class="fil0" d="M2.13443 5.53753c-0.0220906,0.0381417 -0.00907874,0.0869724 0.029063,0.109063 0.0381417,0.0220906 0.0869724,0.00907874 0.109063,-0.029063l0.416669 -0.721689c0.0220906,-0.0381417 0.00907874,-0.0869724 -0.029063,-0.109063 -0.0381417,-0.0220906 -0.0869724,-0.00907874 -0.109063,0.029063l-0.416669 0.721689z"/><path class="fil0" d="M1.24379 4.6136c-0.0381417,0.0219173 -0.0512913,0.0706102 -0.029374,0.108752 0.0219173,0.0381417 0.0706102,0.0512913 0.108752,0.029374l0.721689 -0.416665c0.0381417,-0.0219173 0.0512913,-0.0706102 0.029374,-0.108752 -0.0219173,-0.0381417 -0.0706102,-0.0512913 -0.108752,-0.029374l-0.721689 0.416665z"/><path class="fil0" d="M0.934157 3.36768c-0.0441811,0 -0.08,0.0358189 -0.08,0.08 0,0.0441811 0.0358189,0.08 0.08,0.08l0.833335 0c0.0441811,0 0.08,-0.0358189 0.08,-0.08 0,-0.0441811 -0.0358189,-0.08 -0.08,-0.08l-0.833335 0z"/><path class="fil0" d="M1.28913 2.13443c-0.0381417,-0.0220906 -0.0869724,-0.00907874 -0.109063,0.029063 -0.0220906,0.0381417 -0.00907874,0.0869724 0.029063,0.109063l0.721689 0.416669c0.0381417,0.0220906 0.0869724,0.00907874 0.109063,-0.029063 0.0220906,-0.0381417 0.00907874,-0.0869724 -0.029063,-0.109063l-0.721689 -0.416669z"/><path class="fil0" d="M2.21306 1.24379c-0.0219173,-0.0381417 -0.0706102,-0.0512913 -0.108752,-0.029374 -0.0381417,0.0219173 -0.0512913,0.0706102 -0.029374,0.108752l0.416665 0.721689c0.0219173,0.0381417 0.0706102,0.0512913 0.108752,0.029374 0.0381417,-0.0219173 0.0512913,-0.0706102 0.029374,-0.108752l-0.416665 -0.721689z"/></g><rect class="fil1" width="6.82666" height="6.82666"/><text x="0" y="21.82666" fill="#000000" font-size="5px" font-weight="bold" font-family="'Helvetica Neue', Helvetica, Arial-Unicode, Arial, Sans-serif">Created by IYIKON</text><text x="0" y="26.82666" fill="#000000" font-size="5px" font-weight="bold" font-family="'Helvetica Neue', Helvetica, Arial-Unicode, Arial, Sans-serif">from the Noun Project</text></svg>