<svg xmlns="http://www.w3.org/2000/svg" xmlns:xlink="http://www.w3.org/1999/xlink" xml:space="preserve" style="shape-rendering:geometricPrecision;text-rendering:geometricPrecision;image-rendering:optimizeQuality;" viewBox="0 0 6.82666 8.533325000000001" x="0px" y="0px" fill-rule="evenodd" clip-rule="evenodd"><defs><style type="text/css">
   
    .fil1 {fill:none}
    .fil0 {fill:black;fill-rule:nonzero}
   
  </style></defs><g><path class="fil0" d="M3.89333 3.64202c0.176799,0.111862 0.324531,0.26574 0.429161,0.447661 0.108673,0.188961 0.170839,0.407622 0.170839,0.640315 0,0.355295 -0.14402,0.676965 -0.376862,0.909803 -0.232839,0.232843 -0.554508,0.376862 -0.909803,0.376862 -0.355295,0 -0.676965,-0.14402 -0.909803,-0.376862 -0.232843,-0.232839 -0.376862,-0.554508 -0.376862,-0.909803 0,-0.232693 0.0621654,-0.451354 0.170839,-0.640315 0.10463,-0.181921 0.252362,-0.335799 0.429161,-0.447661l0 -2.39202c0,-0.188917 0.0772244,-0.360606 0.201642,-0.485024 0.124417,-0.124413 0.296106,-0.201642 0.485024,-0.201642 0.188917,0 0.360606,0.0772283 0.485024,0.201642 0.124417,0.124417 0.201642,0.296106 0.201642,0.485024l0 2.39202zm0.291035 0.527039c-0.0983465,-0.170988 -0.240433,-0.313799 -0.411035,-0.413224l-0.04 -0.023315 0 -0.045748 0 -2.43678c0,-0.144748 -0.0592756,-0.276406 -0.154768,-0.371898 -0.0954961,-0.0954921 -0.22715,-0.154768 -0.371898,-0.154768 -0.144748,0 -0.276402,0.0592756 -0.371898,0.154768 -0.0954921,0.0954921 -0.154768,0.22715 -0.154768,0.371898l0 2.43678 0 0.045748 -0.04 0.023315c-0.170602,0.0994252 -0.312689,0.242236 -0.411035,0.413224 -0.0947598,0.164764 -0.148965,0.356268 -0.148965,0.560937 0,0.311126 0.126106,0.592799 0.329988,0.796677 0.203878,0.203882 0.485551,0.329988 0.796677,0.329988 0.311126,0 0.592799,-0.126106 0.796677,-0.329988 0.203882,-0.203878 0.329988,-0.485551 0.329988,-0.796677 0,-0.204669 -0.0542047,-0.396173 -0.148965,-0.560937z"/><path class="fil0" d="M3.20667 4.04825c0.186409,0 0.355185,0.0755669 0.47735,0.197732 0.122165,0.122165 0.197732,0.290941 0.197732,0.47735 0,0.186409 -0.0755669,0.355185 -0.197732,0.47735 -0.122165,0.122165 -0.290941,0.197732 -0.47735,0.197732 -0.186409,0 -0.355185,-0.0755669 -0.47735,-0.197732 -0.122165,-0.122165 -0.197732,-0.290941 -0.197732,-0.47735 0,-0.186409 0.0755669,-0.355185 0.197732,-0.47735 0.122165,-0.122165 0.290941,-0.197732 0.47735,-0.197732zm0.364224 0.310858c-0.0932047,-0.0932047 -0.221984,-0.150858 -0.364224,-0.150858 -0.14224,0 -0.27102,0.0576535 -0.364224,0.150858 -0.0932047,0.0932047 -0.150858,0.221984 -0.150858,0.364224 0,0.14224 0.0576535,0.27102 0.150858,0.364224 0.0932047,0.0932047 0.221984,0.150858 0.364224,0.150858 0.14224,0 0.27102,-0.0576535 0.364224,-0.150858 0.0932047,-0.0932047 0.150858,-0.221984 0.150858,-0.364224 0,-0.14224 -0.0576535,-0.27102 -0.150858,-0.364224z"/><path class="fil0" d="M3.28667 1.27854c0,-0.0441811 -0.0358189,-0.08 -0.08,-0.08 -0.0441811,0 -0.08,0.0358189 -0.08,0.08l0 2.84971c0,0.0441811 0.0358189,0.08 0.08,0.08 0.0441811,0 0.08,-0.0358189 0.08,-0.08l0 -2.84971z"/></g><rect class="fil1" width="6.82666" height="6.82666"/><text x="0" y="21.82666" fill="#000000" font-size="5px" font-weight="bold" font-family="'Helvetica Neue', Helvetica, Arial-Unicode, Arial, Sans-serif">Created by IYIKON</text><text x="0" y="26.82666" fill="#000000" font-size="5px" font-weight="bold" font-family="'Helvetica Neue', Helvetica, Arial-Unicode, Arial, Sans-serif">from the Noun Project</text></svg>