<svg xmlns="http://www.w3.org/2000/svg" xmlns:xlink="http://www.w3.org/1999/xlink" xml:space="preserve" style="shape-rendering:geometricPrecision;text-rendering:geometricPrecision;image-rendering:optimizeQuality;" viewBox="0 0 6.82666 8.533325000000001" x="0px" y="0px" fill-rule="evenodd" clip-rule="evenodd"><defs><style type="text/css">
   
    <!-- .fil1 {fill:none}
    .fil0 {fill:black;fill-rule:nonzero} -->
   
  </style></defs><g><path class="fil0" d="M0.933331 3.15429c-0.0441811,0 -0.08,0.0358189 -0.08,0.08 0,0.0441811 0.0358189,0.08 0.08,0.08l2.92505 0c0.00353937,0 0.00701969,-0.000232283 0.010437,-0.000677165 0.154709,-0.00883465 0.267697,-0.0695157 0.345323,-0.159591 0.0900827,-0.104528 0.129406,-0.246205 0.129406,-0.38987 0,-0.149382 -0.052878,-0.285437 -0.138358,-0.384622 -0.088126,-0.102256 -0.210697,-0.165512 -0.346807,-0.165512 -0.114232,0 -0.218969,0.044563 -0.301906,0.119386 -0.0823189,0.0742638 -0.142906,0.178563 -0.168996,0.298094 -0.0093189,0.0431457 0.0181063,0.0856811 0.061252,0.095 0.0431457,0.0093189 0.0856811,-0.0181063 0.095,-0.061252 0.0188425,-0.0863268 0.0617165,-0.160854 0.119618,-0.213094 0.0542795,-0.0489685 0.121988,-0.0781339 0.195031,-0.0781339 0.0876496,0 0.167673,0.0419961 0.226185,0.10989 0.0611496,0.0709567 0.0989803,0.169988 0.0989803,0.280244 0,0.108496 -0.0273583,0.212772 -0.0900276,0.285492 -0.0506496,0.0587756 -0.126665,0.0985236 -0.233142,0.104673l-0.00199606 -2.75591e-005 -2.92505 0z"/>
  <path class="fil0" d="M1.30687 3.51237c-0.0441811,0 -0.08,0.0358189 -0.08,0.08 0,0.0441811 0.0358189,0.08 0.08,0.08l2.92505 0 0.00199606 -2.75591e-005c0.106476,0.00614961 0.182492,0.0458976 0.233142,0.104673 0.0626732,0.0727205 0.0900276,0.176996 0.0900276,0.285492 0,0.110256 -0.0378307,0.209287 -0.0989803,0.280244 -0.0585118,0.0678937 -0.138535,0.10989 -0.226185,0.10989 -0.0730433,0 -0.140752,-0.0291654 -0.195028,-0.0781339 -0.0579055,-0.0522362 -0.10078,-0.126768 -0.119618,-0.213094 -0.0093189,-0.0431457 -0.0518543,-0.0705709 -0.095,-0.061252 -0.0431457,0.0093189 -0.0705709,0.0518543 -0.061252,0.095 0.0260866,0.119531 0.0866732,0.223827 0.168996,0.298094 0.0829331,0.0748228 0.187669,0.119386 0.301902,0.119386 0.13611,0 0.258681,-0.0632559 0.346807,-0.165512 0.0854803,-0.099185 0.138358,-0.23524 0.138358,-0.384622 0,-0.143665 -0.0393189,-0.285339 -0.129406,-0.38987 -0.077626,-0.0900748 -0.190614,-0.150756 -0.345323,-0.159591 -0.00341732,-0.000444882 -0.00689764,-0.000677165 -0.010437,-0.000677165l-2.92505 0z"/>
  <path class="fil0" d="M1.47413 3.8362c-0.0441811,0 -0.08,0.0358189 -0.08,0.08 0,0.0441811 0.0358189,0.08 0.08,0.08l1.68681 0 0.00164173 -2.3622e-005c0.0499882,0.00338189 0.0852756,0.0217283 0.108429,0.0485945 0.0303386,0.0352047 0.0435827,0.0874252 0.0435827,0.142543 0,0.0553031 -0.0186339,0.104575 -0.048748,0.13952 -0.0274724,0.031874 -0.0646181,0.0515984 -0.104906,0.0515984 -0.0333976,0 -0.0646142,-0.0135591 -0.0898465,-0.0363268 -0.0282244,-0.0254646 -0.0492008,-0.0621417 -0.0585315,-0.104898 -0.0093189,-0.0431457 -0.0518543,-0.0705709 -0.095,-0.061252 -0.0431457,0.0093189 -0.0705709,0.0518543 -0.061252,0.095 0.0165787,0.0759567 0.0552717,0.142409 0.107909,0.189898 0.0538858,0.048622 0.122126,0.0775787 0.19672,0.0775787 0.0887441,0 0.168437,-0.0409764 0.225528,-0.10722 0.0544409,-0.0631732 0.088126,-0.149469 0.088126,-0.243898 0,-0.0902913 -0.0252087,-0.179909 -0.0829606,-0.246921 -0.0499764,-0.0579843 -0.122016,-0.0972008 -0.219917,-0.103469 -0.00352756,-0.000476378 -0.00712205,-0.000724409 -0.0107756,-0.000724409l-1.68681 0z"/>
  <path class="fil0" d="M4.57533 3.2055c-0.0441811,0 -0.08,0.0358189 -0.08,0.08 0,0.0441811 0.0358189,0.08 0.08,0.08l1.08434 0c0.00365354,0 0.00724803,-0.000248031 0.0107756,-0.000724409 0.0979016,-0.00626772 0.169945,-0.0454921 0.219917,-0.103472 0.057752,-0.0670079 0.0829606,-0.156626 0.0829606,-0.246921 0,-0.0944291 -0.0336811,-0.180724 -0.088126,-0.243894 -0.0570827,-0.0662402 -0.136776,-0.10722 -0.225528,-0.10722 -0.0745945,0 -0.142831,0.0289567 -0.19672,0.0775787 -0.0526417,0.0474843 -0.0913307,0.113937 -0.107909,0.189894 -0.0093189,0.0431457 0.0181063,0.0856811 0.061252,0.095 0.0431457,0.0093189 0.0856811,-0.0181063 0.095,-0.061252 0.00933071,-0.042752 0.0303071,-0.0794331 0.0585315,-0.104894 0.0252323,-0.0227677 0.0564449,-0.0363268 0.0898465,-0.0363268 0.0402913,0 0.077437,0.0197205 0.104906,0.0515984 0.0301181,0.0349449 0.048748,0.0842165 0.048748,0.139516 0,0.055122 -0.0132441,0.107343 -0.0435827,0.142543 -0.0231575,0.0268661 -0.0584449,0.0452165 -0.108429,0.0485984l-0.00164173 -2.3622e-005 -1.08434 0z"/></g><rect class="fil1" width="6.82666" height="6.82666"/><text x="0" y="21.82666" fill="#000000" font-size="5px" font-weight="bold" font-family="'Helvetica Neue', Helvetica, Arial-Unicode, Arial, Sans-serif">Created by IYIKON</text><text x="0" y="26.82666" fill="#000000" font-size="5px" font-weight="bold" font-family="'Helvetica Neue', Helvetica, Arial-Unicode, Arial, Sans-serif">from the Noun Project</text></svg>